# File created by Blade
# Date/Time:  Tue Jan 27 17:16:27 2015
# Frame Rate: 120.000 fps
#------------------------------------------------------
:FULLY-SPECIFIED
:DEGREES
3041
root -0.801272 37.021189 2.772259 47.846407 68.341166 43.534076
Spine 10.626603 -5.198102 -4.278428
Head -12.264625 -1.880037 -3.094447
LeftShoulder 9.173296 -19.921167 10.926488
LeftArm 20.108186 -12.505529 -56.264595
LeftForeArm 4.568098 -0.000000 69.643120
LeftHand -14.386397 -0.000000 61.588460
LeftHandThumb1 -26.253704 0.000000 33.147579
RightShoulder -3.575023 -17.347636 -3.918223
RightArm 1.403784 -4.206676 43.792449
RightForeArm -168.012847 0.000000 31.997837
RightHand 0.480218 0.000000 2.751994
RightHandThumb1 -24.326973 -0.000000 -32.862282
LeftUpLeg -59.225399 43.081411 -1.225327
LeftLeg 101.116706 -0.000000 -0.000000
LeftFoot 1.307287 -2.261685 -39.573320
LeftToeBase 17.066418 -0.000000 -0.000000
RightUpLeg -15.273061 -17.747004 -4.097232
RightLeg 24.813529 -0.000000 -0.000000
RightFoot -27.640598 -32.416959 12.823349
RightToeBase 4.083934 -0.000000 -0.000000
3042
root -0.794056 37.019244 2.768869 47.637041 68.171621 43.257987
Spine 10.550117 -5.117904 -4.317438
Head -12.242200 -2.037249 -3.201446
LeftShoulder 9.122360 -19.847129 10.915891
LeftArm 20.019479 -12.643050 -56.255791
LeftForeArm 4.643070 -0.000000 69.726437
LeftHand -14.465988 0.000000 61.796170
LeftHandThumb1 -26.253704 0.000000 33.147579
RightShoulder -3.547842 -17.251589 -3.978400
RightArm 1.506660 -4.431484 43.711656
RightForeArm -168.515024 -0.000000 32.146946
RightHand 0.477139 -0.000000 2.794891
RightHandThumb1 -24.326973 -0.000000 -32.862282
LeftUpLeg -58.246007 42.656525 -0.404412
LeftLeg 100.829568 -0.000000 -0.000000
LeftFoot 0.930324 -1.796421 -39.305734
LeftToeBase 17.055247 -0.000000 -0.000000
RightUpLeg -15.378624 -17.783396 -4.126314
RightLeg 24.867913 -0.000000 -0.000000
RightFoot -27.604930 -32.181376 12.668379
RightToeBase 4.038334 -0.000000 -0.000000
3043
root -0.787637 37.018327 2.763119 47.398233 67.970411 42.954115
Spine 10.489501 -4.998391 -4.363426
Head -12.245218 -2.220389 -3.315467
LeftShoulder 9.069258 -19.760919 10.881035
LeftArm 19.966075 -12.790228 -56.233154
LeftForeArm 4.662276 -0.000000 69.808070
LeftHand -14.457724 -0.000000 61.717392
LeftHandThumb1 -26.253704 0.000000 33.147579
RightShoulder -3.554190 -17.212379 -4.029006
RightArm 1.683801 -4.585127 43.597477
RightForeArm -168.847603 -0.000000 32.317381
RightHand 0.541902 -0.000000 2.570110
RightHandThumb1 -24.326973 -0.000000 -32.862282
LeftUpLeg -57.200069 42.162730 0.470036
LeftLeg 100.506112 -0.000000 -0.000000
LeftFoot 0.567914 -1.369109 -39.164635
LeftToeBase 16.873609 -0.000000 -0.000000
RightUpLeg -15.493147 -17.788007 -4.172285
RightLeg 24.939549 -0.000000 -0.000000
RightFoot -27.579815 -31.986345 12.566252
RightToeBase 4.005038 -0.000000 -0.000000
3044
root -0.783956 37.018528 2.753832 47.157824 67.734857 42.626701
Spine 10.415921 -4.867108 -4.418146
Head -12.279003 -2.364222 -3.451834
LeftShoulder 9.014203 -19.680537 10.799387
LeftArm 19.926631 -12.930539 -56.131548
LeftForeArm 4.615348 -0.000000 69.870958
LeftHand -14.465336 -0.000000 61.950184
LeftHandThumb1 -26.253704 0.000000 33.147579
RightShoulder -3.518765 -17.193877 -4.097988
RightArm 1.859021 -4.670297 43.497665
RightForeArm -169.249631 -0.000000 32.493510
RightHand 0.575701 -0.000000 2.509857
RightHandThumb1 -24.326973 -0.000000 -32.862282
LeftUpLeg -56.162392 41.610164 1.351738
LeftLeg 100.164848 -0.000000 -0.000000
LeftFoot 0.197546 -0.937559 -38.747528
LeftToeBase 16.764629 -0.000000 -0.000000
RightUpLeg -15.640050 -17.814965 -4.222122
RightLeg 24.996203 -0.000000 -0.000000
RightFoot -27.522365 -31.791795 12.398133
RightToeBase 4.000129 -0.000000 -0.000000
3045
root -0.781320 37.019194 2.740163 46.873331 67.452499 42.242634
Spine 10.334593 -4.714875 -4.479001
Head -12.316733 -2.435513 -3.614377
LeftShoulder 8.915910 -19.638407 10.759383
LeftArm 19.864085 -13.049980 -56.087007
LeftForeArm 4.600375 -0.000000 69.899035
LeftHand -14.506805 0.000000 62.056292
LeftHandThumb1 -26.253704 0.000000 33.147579
RightShoulder -3.421368 -17.157758 -4.222915
RightArm 2.044137 -4.609633 43.459950
RightForeArm -169.708260 -0.000000 32.560624
RightHand 0.404592 -0.000000 2.281456
RightHandThumb1 -24.326973 -0.000000 -32.862282
LeftUpLeg -55.127148 41.029303 2.215832
LeftLeg 99.814964 -0.000000 -0.000000
LeftFoot -0.206598 -0.415873 -38.406058
LeftToeBase 16.846977 -0.000000 -0.000000
RightUpLeg -15.819813 -17.840761 -4.282077
RightLeg 25.070718 -0.000000 -0.000000
RightFoot -27.461507 -31.562245 12.217683
RightToeBase 4.019949 -0.000000 -0.000000
3046
root -0.781205 37.020643 2.726930 46.589752 67.162843 41.843500
Spine 10.246707 -4.517685 -4.541221
Head -12.363131 -2.541873 -3.747463
LeftShoulder 8.835317 -19.596804 10.721115
LeftArm 19.834243 -13.146000 -56.029879
LeftForeArm 4.580742 -0.000000 69.896949
LeftHand -14.547524 0.000000 62.040557
LeftHandThumb1 -26.253704 0.000000 33.147579
RightShoulder -3.374228 -17.249799 -4.296290
RightArm 2.309002 -4.692460 43.338946
RightForeArm -169.881801 -0.000000 32.703829
RightHand 0.434781 -0.000000 2.473541
RightHandThumb1 -24.326973 -0.000000 -32.862282
LeftUpLeg -54.112812 40.360243 3.095159
LeftLeg 99.452486 -0.000000 -0.000000
LeftFoot -0.649924 0.124133 -38.054775
LeftToeBase 16.905991 -0.000000 -0.000000
RightUpLeg -16.021873 -17.823868 -4.335108
RightLeg 25.148296 -0.000000 -0.000000
RightFoot -27.391497 -31.349714 12.054048
RightToeBase 3.988902 -0.000000 -0.000000
3047
root -0.780810 37.022657 2.709285 46.316839 66.834310 41.450761
Spine 10.155748 -4.268324 -4.618033
Head -12.401598 -2.681946 -3.896116
LeftShoulder 8.783367 -19.609176 10.704190
LeftArm 19.741737 -13.228777 -56.003775
LeftForeArm 4.615682 -0.000000 69.897426
LeftHand -14.608853 -0.000000 61.730965
LeftHandThumb1 -26.253704 0.000000 33.147579
RightShoulder -3.304446 -17.185289 -4.374703
RightArm 2.417863 -4.795651 43.228589
RightForeArm -170.109551 -0.000000 32.826807
RightHand 0.247507 -0.000000 2.564996
RightHandThumb1 -24.326973 -0.000000 -32.862282
LeftUpLeg -53.120930 39.675025 3.928899
LeftLeg 99.091411 -0.000000 -0.000000
LeftFoot -1.100387 0.725003 -37.678287
LeftToeBase 16.952340 -0.000000 -0.000000
RightUpLeg -16.245654 -17.813319 -4.413341
RightLeg 25.243335 -0.000000 -0.000000
RightFoot -27.312752 -31.135871 11.854369
RightToeBase 3.984312 -0.000000 -0.000000
